<svg id="visual" viewBox="0 0 960 150" width="960" height="150" xmlns="http://www.w3.org/2000/svg" xmlns:xlink="http://www.w3.org/1999/xlink" version="1.1"><rect x="0" y="0" width="960" height="150" fill="#181818"></rect><path d="M0 40L22.8 42.8C45.7 45.7 91.3 51.3 137 55.5C182.7 59.7 228.3 62.3 274 61.5C319.7 60.7 365.3 56.3 411.2 54.2C457 52 503 52 548.8 53.3C594.7 54.7 640.3 57.3 686 59.2C731.7 61 777.3 62 823 58.3C868.7 54.7 914.3 46.3 937.2 42.2L960 38L960 151L937.2 151C914.3 151 868.7 151 823 151C777.3 151 731.7 151 686 151C640.3 151 594.7 151 548.8 151C503 151 457 151 411.2 151C365.3 151 319.7 151 274 151C228.3 151 182.7 151 137 151C91.3 151 45.7 151 22.8 151L0 151Z" fill="#ff6f61"></path><path d="M0 85L22.8 83.2C45.7 81.3 91.3 77.7 137 77.5C182.7 77.3 228.3 80.7 274 79.8C319.7 79 365.3 74 411.2 69.3C457 64.7 503 60.3 548.8 63.3C594.7 66.3 640.3 76.7 686 78.7C731.7 80.7 777.3 74.3 823 73.5C868.7 72.7 914.3 77.3 937.2 79.7L960 82L960 151L937.2 151C914.3 151 868.7 151 823 151C777.3 151 731.7 151 686 151C640.3 151 594.7 151 548.8 151C503 151 457 151 411.2 151C365.3 151 319.7 151 274 151C228.3 151 182.7 151 137 151C91.3 151 45.7 151 22.8 151L0 151Z" fill="#ff517f"></path><path d="M0 94L22.8 92.2C45.7 90.3 91.3 86.7 137 82.7C182.7 78.7 228.3 74.3 274 74.7C319.7 75 365.3 80 411.2 84.5C457 89 503 93 548.8 96C594.7 99 640.3 101 686 97C731.7 93 777.3 83 823 80C868.7 77 914.3 81 937.2 83L960 85L960 151L937.2 151C914.3 151 868.7 151 823 151C777.3 151 731.7 151 686 151C640.3 151 594.7 151 548.8 151C503 151 457 151 411.2 151C365.3 151 319.7 151 274 151C228.3 151 182.7 151 137 151C91.3 151 45.7 151 22.8 151L0 151Z" fill="#ef40a6"></path><path d="M0 100L22.8 101.8C45.7 103.7 91.3 107.3 137 107.2C182.7 107 228.3 103 274 101.3C319.7 99.7 365.3 100.3 411.2 102C457 103.7 503 106.3 548.8 107.7C594.7 109 640.3 109 686 107C731.7 105 777.3 101 823 99.8C868.7 98.7 914.3 100.3 937.2 101.2L960 102L960 151L937.2 151C914.3 151 868.7 151 823 151C777.3 151 731.7 151 686 151C640.3 151 594.7 151 548.8 151C503 151 457 151 411.2 151C365.3 151 319.7 151 274 151C228.3 151 182.7 151 137 151C91.3 151 45.7 151 22.8 151L0 151Z" fill="#c548cf"></path><path d="M0 120L22.8 122C45.7 124 91.3 128 137 128.3C182.7 128.7 228.3 125.3 274 125C319.7 124.7 365.3 127.3 411.2 127.5C457 127.7 503 125.3 548.8 122.7C594.7 120 640.3 117 686 116C731.7 115 777.3 116 823 116.5C868.7 117 914.3 117 937.2 117L960 117L960 151L937.2 151C914.3 151 868.7 151 823 151C777.3 151 731.7 151 686 151C640.3 151 594.7 151 548.8 151C503 151 457 151 411.2 151C365.3 151 319.7 151 274 151C228.3 151 182.7 151 137 151C91.3 151 45.7 151 22.8 151L0 151Z" fill="#715df2"></path></svg>