<svg id="visual" viewBox="0 0 700 75" width="700" height="75" xmlns="http://www.w3.org/2000/svg" xmlns:xlink="http://www.w3.org/1999/xlink" version="1.1"><rect x="0" y="0" width="700" height="75" fill="#181818"></rect><path d="M0 51L16.7 51C33.3 51 66.7 51 100 49.2C133.3 47.3 166.7 43.7 200 42.2C233.3 40.7 266.7 41.3 300 41.7C333.3 42 366.7 42 400 42C433.3 42 466.7 42 500 44.2C533.3 46.3 566.7 50.7 600 53.3C633.3 56 666.7 57 683.3 57.5L700 58L700 0L683.3 0C666.7 0 633.3 0 600 0C566.7 0 533.3 0 500 0C466.7 0 433.3 0 400 0C366.7 0 333.3 0 300 0C266.7 0 233.3 0 200 0C166.7 0 133.3 0 100 0C66.7 0 33.3 0 16.7 0L0 0Z" fill="#ff6f61"></path><path d="M0 38L16.7 36.5C33.3 35 66.7 32 100 33.8C133.3 35.7 166.7 42.3 200 43C233.3 43.7 266.7 38.3 300 37C333.3 35.7 366.7 38.3 400 38.7C433.3 39 466.7 37 500 37.3C533.3 37.7 566.7 40.3 600 41.8C633.3 43.3 666.7 43.7 683.3 43.8L700 44L700 0L683.3 0C666.7 0 633.3 0 600 0C566.7 0 533.3 0 500 0C466.7 0 433.3 0 400 0C366.7 0 333.3 0 300 0C266.7 0 233.3 0 200 0C166.7 0 133.3 0 100 0C66.7 0 33.3 0 16.7 0L0 0Z" fill="#ff517f"></path><path d="M0 36L16.7 35.8C33.3 35.7 66.7 35.3 100 34.2C133.3 33 166.7 31 200 31.5C233.3 32 266.7 35 300 35.2C333.3 35.3 366.7 32.7 400 31.8C433.3 31 466.7 32 500 31.2C533.3 30.3 566.7 27.7 600 26.3C633.3 25 666.7 25 683.3 25L700 25L700 0L683.3 0C666.7 0 633.3 0 600 0C566.7 0 533.3 0 500 0C466.7 0 433.3 0 400 0C366.7 0 333.3 0 300 0C266.7 0 233.3 0 200 0C166.7 0 133.3 0 100 0C66.7 0 33.3 0 16.7 0L0 0Z" fill="#ef40a6"></path><path d="M0 13L16.7 13.2C33.3 13.3 66.7 13.7 100 15C133.3 16.3 166.7 18.7 200 19.2C233.3 19.7 266.7 18.3 300 18.2C333.3 18 366.7 19 400 18.7C433.3 18.3 466.7 16.7 500 18.2C533.3 19.7 566.7 24.3 600 25.5C633.3 26.7 666.7 24.3 683.3 23.2L700 22L700 0L683.3 0C666.7 0 633.3 0 600 0C566.7 0 533.3 0 500 0C466.7 0 433.3 0 400 0C366.7 0 333.3 0 300 0C266.7 0 233.3 0 200 0C166.7 0 133.3 0 100 0C66.7 0 33.3 0 16.7 0L0 0Z" fill="#c548cf"></path><path d="M0 14L16.7 13.8C33.3 13.7 66.7 13.3 100 13.5C133.3 13.7 166.7 14.3 200 13.7C233.3 13 266.7 11 300 10.7C333.3 10.3 366.7 11.7 400 12.8C433.3 14 466.7 15 500 14C533.3 13 566.7 10 600 8.5C633.3 7 666.7 7 683.3 7L700 7L700 0L683.3 0C666.7 0 633.3 0 600 0C566.7 0 533.3 0 500 0C466.7 0 433.3 0 400 0C366.7 0 333.3 0 300 0C266.7 0 233.3 0 200 0C166.7 0 133.3 0 100 0C66.7 0 33.3 0 16.7 0L0 0Z" fill="#715df2"></path></svg>