<svg id="visual" viewBox="0 0 960 540" width="960" height="540" xmlns="http://www.w3.org/2000/svg" xmlns:xlink="http://www.w3.org/1999/xlink" version="1.1"><path d="M0 60L14.5 63.7C29 67.3 58 74.7 87.2 71.2C116.3 67.7 145.7 53.3 174.8 52.5C204 51.7 233 64.3 262 76.8C291 89.3 320 101.7 349 106.2C378 110.7 407 107.3 436.2 105.7C465.3 104 494.7 104 523.8 104C553 104 582 104 611 101.2C640 98.3 669 92.7 698 87.2C727 81.7 756 76.3 785.2 68.3C814.3 60.3 843.7 49.7 872.8 50.7C902 51.7 931 64.3 945.5 70.7L960 77L960 0L945.5 0C931 0 902 0 872.8 0C843.7 0 814.3 0 785.2 0C756 0 727 0 698 0C669 0 640 0 611 0C582 0 553 0 523.8 0C494.7 0 465.3 0 436.2 0C407 0 378 0 349 0C320 0 291 0 262 0C233 0 204 0 174.8 0C145.7 0 116.3 0 87.2 0C58 0 29 0 14.5 0L0 0Z" fill="#ff9e92"></path><path d="M0 141L14.5 143.8C29 146.7 58 152.3 87.2 154.2C116.3 156 145.7 154 174.8 154.8C204 155.7 233 159.3 262 167.5C291 175.7 320 188.3 349 188.3C378 188.3 407 175.7 436.2 175.7C465.3 175.7 494.7 188.3 523.8 185.7C553 183 582 165 611 168.5C640 172 669 197 698 210.5C727 224 756 226 785.2 219.8C814.3 213.7 843.7 199.3 872.8 197.5C902 195.7 931 206.3 945.5 211.7L960 217L960 75L945.5 68.7C931 62.3 902 49.7 872.8 48.7C843.7 47.7 814.3 58.3 785.2 66.3C756 74.3 727 79.7 698 85.2C669 90.7 640 96.3 611 99.2C582 102 553 102 523.8 102C494.7 102 465.3 102 436.2 103.7C407 105.3 378 108.7 349 104.2C320 99.7 291 87.3 262 74.8C233 62.3 204 49.7 174.8 50.5C145.7 51.3 116.3 65.7 87.2 69.2C58 72.7 29 65.3 14.5 61.7L0 58Z" fill="#ff8779"></path><path d="M0 255L14.5 264.8C29 274.7 58 294.3 87.2 306.8C116.3 319.3 145.7 324.7 174.8 323.8C204 323 233 316 262 326.8C291 337.7 320 366.3 349 368.2C378 370 407 345 436.2 337C465.3 329 494.7 338 523.8 342.5C553 347 582 347 611 354.2C640 361.3 669 375.7 698 383.7C727 391.7 756 393.3 785.2 378C814.3 362.7 843.7 330.3 872.8 324C902 317.7 931 337.3 945.5 347.2L960 357L960 215L945.5 209.7C931 204.3 902 193.7 872.8 195.5C843.7 197.3 814.3 211.7 785.2 217.8C756 224 727 222 698 208.5C669 195 640 170 611 166.5C582 163 553 181 523.8 183.7C494.7 186.3 465.3 173.7 436.2 173.7C407 173.7 378 186.3 349 186.3C320 186.3 291 173.7 262 165.5C233 157.3 204 153.7 174.8 152.8C145.7 152 116.3 154 87.2 152.2C58 150.3 29 144.7 14.5 141.8L0 139Z" fill="#ff6f61"></path><path d="M0 303L14.5 317.5C29 332 58 361 87.2 375.5C116.3 390 145.7 390 174.8 385.5C204 381 233 372 262 379.2C291 386.3 320 409.7 349 409.7C378 409.7 407 386.3 436.2 387.2C465.3 388 494.7 413 523.8 422C553 431 582 424 611 427.7C640 431.3 669 445.7 698 447.5C727 449.3 756 438.7 785.2 418.8C814.3 399 843.7 370 872.8 363.7C902 357.3 931 373.7 945.5 381.8L960 390L960 355L945.5 345.2C931 335.3 902 315.7 872.8 322C843.7 328.3 814.3 360.7 785.2 376C756 391.3 727 389.7 698 381.7C669 373.7 640 359.3 611 352.2C582 345 553 345 523.8 340.5C494.7 336 465.3 327 436.2 335C407 343 378 368 349 366.2C320 364.3 291 335.7 262 324.8C233 314 204 321 174.8 321.8C145.7 322.7 116.3 317.3 87.2 304.8C58 292.3 29 272.7 14.5 262.8L0 253Z" fill="#e15d50"></path><path d="M0 541L14.5 541C29 541 58 541 87.2 541C116.3 541 145.7 541 174.8 541C204 541 233 541 262 541C291 541 320 541 349 541C378 541 407 541 436.2 541C465.3 541 494.7 541 523.8 541C553 541 582 541 611 541C640 541 669 541 698 541C727 541 756 541 785.2 541C814.3 541 843.7 541 872.8 541C902 541 931 541 945.5 541L960 541L960 388L945.5 379.8C931 371.7 902 355.3 872.8 361.7C843.7 368 814.3 397 785.2 416.8C756 436.7 727 447.3 698 445.5C669 443.7 640 429.3 611 425.7C582 422 553 429 523.8 420C494.7 411 465.3 386 436.2 385.2C407 384.3 378 407.7 349 407.7C320 407.7 291 384.3 262 377.2C233 370 204 379 174.8 383.5C145.7 388 116.3 388 87.2 373.5C58 359 29 330 14.5 315.5L0 301Z" fill="#c44c40"></path></svg>