<?xml version="1.0" encoding="utf-8"?>
<!-- Generator: Adobe Illustrator 27.6.1, SVG Export Plug-In . SVG Version: 6.00 Build 0)  -->
<svg version="1.1" id="Layer_2_00000003786962689714120280000011913603199568242819_"
	 xmlns="http://www.w3.org/2000/svg" xmlns:xlink="http://www.w3.org/1999/xlink" x="0px" y="0px" viewBox="0 0 1202 789.3"
	 style="enable-background:new 0 0 1202 789.3;" xml:space="preserve">
<style type="text/css">
	.st0{fill:#FFFFFF;}
</style>
<path class="st0" d="M1202,63.7L1202,63.7c0,13.4-10.8,24.2-24.2,24.2H1074c-12.8,0-23.1,10.3-23.1,23.1l0,0
	c0,12.8,10.3,23.1,23.1,23.1h66c16.2,0,29.3,13.1,29.3,29.3V177c0,16.2-13.1,29.3-29.3,29.3l0,0v393.5c0,12.5-10.1,22.5-22.6,22.5
	l0,0c-12.4,0-22.6,10.1-22.6,22.5l0,0c0,12.5,10.1,22.5,22.6,22.5h35c19.9,0,36.1,16.2,36.1,36.1l0,0c0,19.9-16.2,36.1-36.1,36.1
	H1140c0,27.4-22.2,49.6-49.6,49.6h-972c-27.4,0-49.6-22.2-49.6-49.6V464c0-15.3-12.4-27.6-27.6-27.6H24.8
	C11.1,436.4,0,425.3,0,411.6l0,0c0-13.7,11.1-24.8,24.8-24.8h44h3.4c12.4,0,22.6-10.1,22.6-22.5l0,0c0-12.5-10.1-22.5-22.6-22.5
	h-3.4H47.4c-13.7,0-24.8-11.1-24.8-24.8l0,0c0-13.7,11.1-24.8,24.8-24.8h2.3c10.6,0,19.2-8.6,19.2-19.2V182
	c0-18.9,15.3-34.2,34.2-34.2h28.9c13.7,0,24.8-11.1,24.8-24.8l0,0c0-13.7-11.1-24.8-24.8-24.8h-14.1c-27.1,0-49.1-22-49.1-49l0,0
	c0-27.1,21.9-49,49-49h982.7c21.8,0,39.5,17.7,39.5,39.5l0,0h37.8C1191.2,39.5,1202,50.3,1202,63.7z"/>
</svg>
