<?xml version="1.0" encoding="UTF-8"?>
<svg id="Layer_2" data-name="Layer 2" xmlns="http://www.w3.org/2000/svg" viewBox="0 0 1202 789.31">
  <defs>
    <style>
      .cls-1 {
        fill:#F1948A ;
      }
    </style>
  </defs>
  <path class="cls-1" d="m1202,63.71h0c0,13.39-10.85,24.24-24.24,24.24h-103.74c-12.77,0-23.12,10.35-23.12,23.12h0c0,12.77,10.35,23.12,23.12,23.12h65.96c16.19,0,29.32,13.13,29.32,29.32v13.53c0,16.19-13.13,29.32-29.32,29.32h0v393.53c0,12.45-10.1,22.55-22.55,22.55h0c-12.45,0-22.55,10.1-22.55,22.55h0c0,12.45,10.1,22.55,22.55,22.55h34.96c19.93,0,36.08,16.15,36.08,36.08h0c0,19.93-16.15,36.08-36.08,36.08h-12.4c0,27.4-22.21,49.61-49.61,49.61H118.4c-27.4,0-49.61-22.21-49.61-49.61v-275.68c0-15.26-12.37-27.64-27.64-27.64h-16.34c-13.7,0-24.81-11.11-24.81-24.81h0c0-13.7,11.11-24.81,24.81-24.81h43.98s3.38,0,3.38,0c12.45,0,22.55-10.1,22.55-22.55h0c0-12.45-10.1-22.55-22.55-22.55h-3.38s-21.42,0-21.42,0c-13.7,0-24.81-11.11-24.81-24.81h0c0-13.7,11.11-24.81,24.81-24.81h2.26c10.59,0,19.17-8.58,19.17-19.17v-90.92c0-18.91,15.33-34.24,34.24-34.24h28.9c13.7,0,24.81-11.11,24.81-24.81h0c0-13.7-11.11-24.81-24.81-24.81h-14.09c-27.09,0-49.05-21.96-49.05-49.05h0C68.78,21.96,90.74,0,117.83,0h982.69c21.8,0,39.47,17.67,39.47,39.47h0s37.77,0,37.77,0c13.39,0,24.24,10.85,24.24,24.24Z"/>
</svg>