<?xml version="1.0" encoding="UTF-8"?>
<svg id="Layer_7" data-name="Layer 7" xmlns="http://www.w3.org/2000/svg" viewBox="0 0 458.1 458.08">
  <defs>
    <style>
      .cls-1 {
        fill: #fff;
      }
    </style>
  </defs>
  <g>
    <path class="cls-1" d="m400.79,290.9h-14.95l-24.52,24.52-.43-.43c-11.37,17.42-26.1,32.43-43.28,44.13-15.03,10.26-31.92,17.98-50.06,22.53-12.33,3.11-25.22,4.75-38.5,4.75-64.96,0-120.7-39.34-144.73-95.5h20.78c22.7,45.44,69.68,76.66,123.95,76.66,7.67,0,15.23-.63,22.57-1.84,36.5-5.98,68.2-26.22,89.16-54.83l-19.55-19.55c-20,29.54-53.81,48.97-92.18,48.97-.97,0-1.92-.01-2.87-.03-37.38-.95-70.16-20.33-89.63-49.39-5.12-7.63-9.31-15.91-12.42-24.74h-28.55s-45.23.01-45.23.01c1.75,8.48,4.08,16.74,6.97,24.74,25.33,70.34,92.65,120.65,171.74,120.63,79.09.01,146.41-50.29,171.74-120.63Zm-309.69-49.49h-8.7s36.06.01,36.06.01h-27.37Zm309.69-74.23c-25.33-70.34-92.65-120.65-171.74-120.63-79.09-.01-146.41,50.29-171.74,120.63h11.87l23.95-23.95,2.44,2.44c2.03-3.27,4.19-6.45,6.48-9.53,2.11-2.9,4.32-5.73,6.64-8.47,5.77-6.85,12.11-13.2,18.97-18.97,17.11-14.45,37.35-25.3,59.55-31.4,13.33-3.67,27.35-5.63,41.85-5.63,64.96,0,120.7,39.34,144.73,95.5h-20.78c-22.7-45.44-69.68-76.66-123.95-76.66-8.95,0-17.69.85-26.15,2.48-36.03,6.87-67.09,27.71-87.35,56.63l19.64,19.64c.44-.7.9-1.41,1.36-2.09,19.72-29.44,53.13-48.95,91.12-49.41.45-.01.91-.01,1.37-.01,38.57,0,72.53,19.63,92.5,49.42,5.12,7.63,9.31,15.91,12.42,24.74h28.55s45.23-.01,45.23-.01c-1.75-8.48-4.08-16.74-6.97-24.74Zm0,123.71h-14.95l-24.52,24.52-.43-.43c-11.37,17.42-26.1,32.43-43.28,44.13-15.03,10.26-31.92,17.98-50.06,22.53-12.33,3.11-25.22,4.75-38.5,4.75-64.96,0-120.7-39.34-144.73-95.5h20.78c22.7,45.44,69.68,76.66,123.95,76.66,7.67,0,15.23-.63,22.57-1.84,36.5-5.98,68.2-26.22,89.16-54.83l-19.55-19.55c-20,29.54-53.81,48.97-92.18,48.97-.97,0-1.92-.01-2.87-.03-37.38-.95-70.16-20.33-89.63-49.39-5.12-7.63-9.31-15.91-12.42-24.74h-28.55s-45.23.01-45.23.01c1.75,8.48,4.08,16.74,6.97,24.74,25.33,70.34,92.65,120.65,171.74,120.63,79.09.01,146.41-50.29,171.74-120.63Zm-309.69-49.49h-8.7s36.06.01,36.06.01h-27.37Zm42-74.21l2.09,2.09c.44-.7.9-1.41,1.36-2.09h-3.45Zm316.55,123.7c2.26-8.07,4.08-16.33,5.45-24.74h-73.11c-.2.86-.42,1.72-.64,2.55-.19.74-.37,1.45-.58,2.17-.21.78-.43,1.55-.66,2.33-.26.95-.54,1.88-.85,2.8-.23.76-.45,1.48-.7,2.22-.66,2.02-1.35,4.01-2.1,5.99-.2.53-.4,1.06-.6,1.57-.02.09-.06.16-.09.22-.31.79-.62,1.58-.95,2.37-.34.85-.68,1.67-1.03,2.51-3.61,8.44-7.94,16.49-12.9,24.09-11.37,17.42-26.1,32.43-43.28,44.13-15.03,10.26-31.92,17.98-50.06,22.53-12.33,3.11-25.22,4.75-38.5,4.75-64.96,0-120.7-39.34-144.73-95.5h20.78c22.7,45.44,69.68,76.66,123.95,76.66,7.67,0,15.23-.63,22.57-1.84,36.5-5.98,68.2-26.22,89.16-54.83,2.28-3.09,4.43-6.28,6.43-9.58,2.08-3.38,4.01-6.85,5.79-10.41,3.94-7.85,7.14-16.13,9.52-24.74,1-3.6,1.86-7.25,2.56-10.96.87-4.52,1.51-9.11,1.91-13.79h90.77c.22-4.09.33-8.22.32-12.37.01-4.14-.1-8.28-.32-12.37-.45-8.39-1.34-16.62-2.67-24.75-1.37-8.41-3.19-16.67-5.45-24.74C422.67,70.74,334.12,0,229.05,0,123.99,0,35.43,70.74,8.45,167.19c-2.26,8.07-4.08,16.33-5.45,24.74h73.11c.11-.46.22-.92.34-1.37t.01-.03c.24-.99.51-1.98.77-2.97.19-.71.4-1.43.6-2.14.22-.79.45-1.59.7-2.37.18-.62.37-1.23.57-1.85.25-.82.54-1.66.81-2.48,1.31-3.9,2.78-7.75,4.39-11.51,3.2-7.49,6.97-14.69,11.26-21.51,2.03-3.27,4.19-6.45,6.48-9.53,2.11-2.9,4.32-5.73,6.64-8.47,5.77-6.85,12.11-13.2,18.97-18.97,17.11-14.45,37.35-25.3,59.55-31.4,13.33-3.67,27.35-5.63,41.85-5.63,64.96,0,120.7,39.34,144.73,95.5h-20.78c-22.7-45.44-69.68-76.66-123.95-76.66-8.95,0-17.69.85-26.15,2.48-36.03,6.87-67.09,27.71-87.35,56.63-2.21,3.16-4.3,6.41-6.26,9.75-1.47,2.55-2.88,5.15-4.2,7.78-3.94,7.85-7.14,16.13-9.52,24.74-1.32,4.75-2.4,9.61-3.19,14.56-.56,3.35-.98,6.76-1.29,10.19H.33c-.22,4.09-.33,8.22-.32,12.37-.01,4.14.1,8.28.32,12.37.45,8.39,1.34,16.62,2.67,24.75,1.37,8.41,3.19,16.67,5.45,24.74,26.98,96.45,115.53,167.19,220.6,167.19,105.07,0,193.62-70.74,220.6-167.19Zm-220.6,142.45c-91.27-.01-168.57-59.86-194.75-142.46-2.56-8.04-4.63-16.28-6.19-24.73-1.47-8.09-2.48-16.34-2.99-24.74h93.35c-.35-3.12-.56-6.3-.64-9.5-.03-.96-.04-1.91-.04-2.88,0-4.18.23-8.32.68-12.38.95-8.58,2.88-16.87,5.66-24.73,1.51-4.28,3.27-8.43,5.27-12.44,0-.02.02-.04.03-.05.2-.42.42-.84.63-1.24.34-.65.68-1.3,1.03-1.94.42-.79.85-1.57,1.31-2.34.35-.64.71-1.26,1.09-1.88.13-.22.26-.44.4-.66.38-.65.79-1.3,1.21-1.94.02-.07.07-.11.1-.16.44-.7.9-1.41,1.36-2.09,19.72-29.44,53.13-48.95,91.12-49.41.45-.01.91-.01,1.37-.01,38.57,0,72.53,19.63,92.5,49.42,5.12,7.63,9.31,15.91,12.42,24.74h28.55s45.23-.01,45.23-.01c-1.75-8.48-4.08-16.74-6.97-24.74-25.33-70.34-92.65-120.65-171.74-120.63-79.09-.01-146.41,50.29-171.74,120.63h-23C60.49,84.58,137.78,24.75,229.05,24.74c91.27.01,168.57,59.86,194.75,142.46,2.56,8.04,4.63,16.28,6.19,24.73,1.47,8.09,2.48,16.34,2.97,24.74h-21.85s-25.19,0-25.19,0h-18.92s-27.37,0-27.37,0c.45,4.06.68,8.2.68,12.38,0,.46-.01.91-.02,1.36,0,.81-.02,1.63-.05,2.43,0,.4-.01.76-.04,1.12-.02.62-.04,1.21-.09,1.8-.11,1.91-.26,3.8-.47,5.66-.95,8.58-2.88,16.87-5.66,24.73-.7,2-1.46,3.97-2.29,5.89-.23.56-.45,1.11-.7,1.65-.24.57-.48,1.14-.75,1.69-.35.77-.71,1.53-1.09,2.28-.3.63-.6,1.24-.92,1.87-.31.62-.63,1.22-.97,1.83-.27.54-.57,1.08-.88,1.61-.25.52-.55,1.01-.84,1.5-.26.48-.55.97-.85,1.44-.13.24-.27.49-.44.73-.37.64-.76,1.26-1.15,1.88,0,.02-.02.04-.03.05-.49.8-1,1.55-1.52,2.33-.11.15-.2.31-.32.45-20,29.54-53.81,48.97-92.18,48.97-.97,0-1.92-.01-2.87-.03-37.38-.95-70.16-20.33-89.63-49.39-5.12-7.63-9.31-15.91-12.42-24.74h-28.55s-45.23.01-45.23.01c1.75,8.48,4.08,16.74,6.97,24.74,25.33,70.34,92.65,120.65,171.74,120.63,79.09.01,146.41-50.29,171.74-120.63h23c-26.18,82.6-103.47,142.44-194.74,142.45Zm-92.5-266.15h-3.45l2.09,2.09c.44-.7.9-1.41,1.36-2.09Zm-45.45,74.21h-8.7s36.06.01,36.06.01h-27.37Zm309.69,49.49h-14.95l-24.52,24.52-.43-.43c-11.37,17.42-26.1,32.43-43.28,44.13-15.03,10.26-31.92,17.98-50.06,22.53-12.33,3.11-25.22,4.75-38.5,4.75-64.96,0-120.7-39.34-144.73-95.5h20.78c22.7,45.44,69.68,76.66,123.95,76.66,7.67,0,15.23-.63,22.57-1.84,36.5-5.98,68.2-26.22,89.16-54.83l-19.55-19.55c-20,29.54-53.81,48.97-92.18,48.97-.97,0-1.92-.01-2.87-.03-37.38-.95-70.16-20.33-89.63-49.39-5.12-7.63-9.31-15.91-12.42-24.74h-28.55s-45.23.01-45.23.01c1.75,8.48,4.08,16.74,6.97,24.74,25.33,70.34,92.65,120.65,171.74,120.63,79.09.01,146.41-50.29,171.74-120.63Zm0-123.71c-25.33-70.34-92.65-120.65-171.74-120.63-79.09-.01-146.41,50.29-171.74,120.63h11.87l23.95-23.95,2.44,2.44c2.03-3.27,4.19-6.45,6.48-9.53,2.11-2.9,4.32-5.73,6.64-8.47,5.77-6.85,12.11-13.2,18.97-18.97,17.11-14.45,37.35-25.3,59.55-31.4,13.33-3.67,27.35-5.63,41.85-5.63,64.96,0,120.7,39.34,144.73,95.5h-20.78c-22.7-45.44-69.68-76.66-123.95-76.66-8.95,0-17.69.85-26.15,2.48-36.03,6.87-67.09,27.71-87.35,56.63l19.64,19.64c.44-.7.9-1.41,1.36-2.09,19.72-29.44,53.13-48.95,91.12-49.41.45-.01.91-.01,1.37-.01,38.57,0,72.53,19.63,92.5,49.42,5.12,7.63,9.31,15.91,12.42,24.74h28.55s45.23-.01,45.23-.01c-1.75-8.48-4.08-16.74-6.97-24.74ZM91.1,241.41h-8.7s36.06.01,36.06.01h-27.37Zm309.69,49.49h-14.95l-24.52,24.52-.43-.43c-11.37,17.42-26.1,32.43-43.28,44.13-15.03,10.26-31.92,17.98-50.06,22.53-12.33,3.11-25.22,4.75-38.5,4.75-64.96,0-120.7-39.34-144.73-95.5h20.78c22.7,45.44,69.68,76.66,123.95,76.66,7.67,0,15.23-.63,22.57-1.84,36.5-5.98,68.2-26.22,89.16-54.83l-19.55-19.55c-20,29.54-53.81,48.97-92.18,48.97-.97,0-1.92-.01-2.87-.03-37.38-.95-70.16-20.33-89.63-49.39-5.12-7.63-9.31-15.91-12.42-24.74h-28.55s-45.23.01-45.23.01c1.75,8.48,4.08,16.74,6.97,24.74,25.33,70.34,92.65,120.65,171.74,120.63,79.09.01,146.41-50.29,171.74-120.63Zm0-123.71c-25.33-70.34-92.65-120.65-171.74-120.63-79.09-.01-146.41,50.29-171.74,120.63h27c3.2-7.49,6.97-14.69,11.26-21.51,2.03-3.27,4.19-6.45,6.48-9.53,2.11-2.9,4.32-5.73,6.64-8.47,5.77-6.85,12.11-13.2,18.97-18.97,17.11-14.45,37.35-25.3,59.55-31.4,13.33-3.67,27.35-5.63,41.85-5.63,64.96,0,120.7,39.34,144.73,95.5h-20.78c-22.7-45.44-69.68-76.66-123.95-76.66-8.95,0-17.69.85-26.15,2.48-36.03,6.87-67.09,27.71-87.35,56.63-2.21,3.16-4.3,6.41-6.26,9.75-1.47,2.55-2.88,5.15-4.2,7.78h11.98l12.31,12.31s.02-.04.03-.05c.2-.42.42-.84.63-1.24.34-.65.68-1.3,1.03-1.94.42-.79.85-1.57,1.31-2.34.35-.64.71-1.26,1.09-1.88.13-.22.26-.44.4-.66.38-.65.79-1.3,1.21-1.94.02-.07.07-.11.1-.16l-2.09-2.09h3.45c19.72-29.44,53.13-48.95,91.12-49.41.45-.01.91-.01,1.37-.01,38.57,0,72.53,19.63,92.5,49.42,5.12,7.63,9.31,15.91,12.42,24.74h28.55s45.23-.01,45.23-.01c-1.75-8.48-4.08-16.74-6.97-24.74Z"/>
    <path class="cls-1" d="m400.79,290.9h23.01c2.56-8.05,4.63-16.29,6.19-24.74h-48c-.2.86-.42,1.72-.64,2.55-.19.74-.37,1.45-.58,2.17-.21.78-.43,1.55-.66,2.33-.26.95-.54,1.88-.85,2.8-.23.76-.45,1.48-.7,2.22-.66,2.02-1.35,4.01-2.1,5.99-.2.53-.4,1.06-.6,1.57-.02.09-.06.16-.09.22-.31.79-.62,1.58-.95,2.37-.34.85-.68,1.67-1.03,2.51-3.61,8.44-7.94,16.49-12.9,24.09-11.37,17.42-26.1,32.43-43.28,44.13-15.03,10.26-31.92,17.98-50.06,22.53-12.33,3.11-25.22,4.75-38.5,4.75-64.96,0-120.7-39.34-144.73-95.5h20.78c22.7,45.44,69.68,76.66,123.95,76.66,7.67,0,15.23-.63,22.57-1.84,36.5-5.98,68.2-26.22,89.16-54.83,2.28-3.09,4.43-6.28,6.43-9.58,2.08-3.38,4.01-6.85,5.79-10.41,3.94-7.85,7.14-16.13,9.52-24.74,1-3.6,1.86-7.25,2.56-10.96.87-4.52,1.51-9.11,1.91-13.79h65.99c.23-4.1.35-8.22.36-12.37-.01-4.14-.13-8.29-.4-12.38h-21.85s-25.19,0-25.19,0h-18.92s-27.37,0-27.37,0c.45,4.06.68,8.2.68,12.38,0,.46-.01.91-.02,1.36,0,.81-.02,1.63-.05,2.43,0,.4-.01.76-.04,1.12-.02.62-.04,1.21-.09,1.8-.11,1.91-.26,3.8-.47,5.66-.95,8.58-2.88,16.87-5.66,24.73-.7,2-1.46,3.97-2.29,5.89-.23.56-.45,1.11-.7,1.65-.24.57-.48,1.14-.75,1.69-.35.77-.71,1.53-1.09,2.28-.3.63-.6,1.24-.92,1.87-.31.62-.63,1.22-.97,1.83-.27.54-.57,1.08-.88,1.61-.25.52-.55,1.01-.84,1.5-.26.48-.55.97-.85,1.44-.13.24-.27.49-.44.73-.37.64-.76,1.26-1.15,1.88,0,.02-.02.04-.03.05-.49.8-1,1.55-1.52,2.33-.11.15-.2.31-.32.45-20,29.54-53.81,48.97-92.18,48.97-.97,0-1.92-.01-2.87-.03-37.38-.95-70.16-20.33-89.63-49.39-5.12-7.63-9.31-15.91-12.42-24.74h-28.55s-45.23.01-45.23.01c1.75,8.48,4.08,16.74,6.97,24.74,25.33,70.34,92.65,120.65,171.74,120.63,79.09.01,146.41-50.29,171.74-120.63Zm0-123.71c-25.33-70.34-92.65-120.65-171.74-120.63-79.09-.01-146.41,50.29-171.74,120.63h-23.01c-2.56,8.05-4.63,16.29-6.19,24.74h48c.11-.46.22-.92.34-1.37t.01-.03c.24-.99.51-1.98.77-2.97.19-.71.4-1.43.6-2.14.22-.79.45-1.59.7-2.37.18-.62.37-1.23.57-1.85.25-.82.54-1.66.81-2.48,1.31-3.9,2.78-7.75,4.39-11.51,3.2-7.49,6.97-14.69,11.26-21.51,2.03-3.27,4.19-6.45,6.48-9.53,2.11-2.9,4.32-5.73,6.64-8.47,5.77-6.85,12.11-13.2,18.97-18.97,17.11-14.45,37.35-25.3,59.55-31.4,13.33-3.67,27.35-5.63,41.85-5.63,64.96,0,120.7,39.34,144.73,95.5h-20.78c-22.7-45.44-69.68-76.66-123.95-76.66-8.95,0-17.69.85-26.15,2.48-36.03,6.87-67.09,27.71-87.35,56.63-2.21,3.16-4.3,6.41-6.26,9.75-1.47,2.55-2.88,5.15-4.2,7.78-3.94,7.85-7.14,16.13-9.52,24.74-1.32,4.75-2.4,9.61-3.19,14.56-.56,3.35-.98,6.76-1.29,10.19H25.13c-.25,4.1-.37,8.22-.38,12.37.01,4.14.13,8.29.37,12.38h93.35c-.35-3.12-.56-6.3-.64-9.5-.03-.96-.04-1.91-.04-2.88,0-4.18.23-8.32.68-12.38.95-8.58,2.88-16.87,5.66-24.73,1.51-4.28,3.27-8.43,5.27-12.44,0-.02.02-.04.03-.05.2-.42.42-.84.63-1.24.34-.65.68-1.3,1.03-1.94.42-.79.85-1.57,1.31-2.34.35-.64.71-1.26,1.09-1.88.13-.22.26-.44.4-.66.38-.65.79-1.3,1.21-1.94.02-.07.07-.11.1-.16.44-.7.9-1.41,1.36-2.09,19.72-29.44,53.13-48.95,91.12-49.41.45-.01.91-.01,1.37-.01,38.57,0,72.53,19.63,92.5,49.42,5.12,7.63,9.31,15.91,12.42,24.74h28.55s45.23-.01,45.23-.01c-1.75-8.48-4.08-16.74-6.97-24.74Z"/>
    <path class="cls-1" d="m400.79,290.9c2.89-7.99,5.22-16.26,6.97-24.74h-25.77c-.2.86-.42,1.72-.64,2.55-.19.74-.37,1.45-.58,2.17-.21.78-.43,1.55-.66,2.33-.26.95-.54,1.88-.85,2.8-.23.76-.45,1.48-.7,2.22-.66,2.02-1.35,4.01-2.1,5.99-.2.53-.4,1.06-.6,1.57-.02.09-.06.16-.09.22-.31.79-.62,1.58-.95,2.37-.34.85-.68,1.67-1.03,2.51-3.61,8.44-7.94,16.49-12.9,24.09-11.37,17.42-26.1,32.43-43.28,44.13-15.03,10.26-31.92,17.98-50.06,22.53-12.33,3.11-25.22,4.75-38.5,4.75-64.96,0-120.7-39.34-144.73-95.5h20.78c22.7,45.44,69.68,76.66,123.95,76.66,7.67,0,15.23-.63,22.57-1.84,36.5-5.98,68.2-26.22,89.16-54.83,2.28-3.09,4.43-6.28,6.43-9.58,2.08-3.38,4.01-6.85,5.79-10.41,3.94-7.85,7.14-16.13,9.52-24.74,1-3.6,1.86-7.25,2.56-10.96.87-4.52,1.51-9.11,1.91-13.79h44.13c.27-4.1.42-8.2.41-12.37.01-4.15-.13-8.29-.43-12.37h-25.19s-18.92,0-18.92,0h-27.37c.45,4.05.68,8.19.68,12.37,0,.46-.01.91-.02,1.36,0,.81-.02,1.63-.05,2.43,0,.4-.01.76-.04,1.12-.02.62-.04,1.21-.09,1.8-.11,1.91-.26,3.8-.47,5.66-.95,8.58-2.88,16.87-5.66,24.73-.7,2-1.46,3.97-2.29,5.89-.23.56-.45,1.11-.7,1.65-.24.57-.48,1.14-.75,1.69-.35.77-.71,1.53-1.09,2.28-.3.63-.6,1.24-.92,1.87-.31.62-.63,1.22-.97,1.83-.27.54-.57,1.08-.88,1.61-.25.52-.55,1.01-.84,1.5-.26.48-.55.97-.85,1.44-.13.24-.27.49-.44.73-.37.64-.76,1.26-1.15,1.88,0,.02-.02.04-.03.05-.49.8-1,1.55-1.52,2.33-.11.15-.2.31-.32.45-20,29.54-53.81,48.97-92.18,48.97-.97,0-1.92-.01-2.87-.03-37.38-.95-70.16-20.33-89.63-49.39-5.12-7.63-9.31-15.91-12.42-24.74h-28.55s-45.23.01-45.23.01c1.75,8.48,4.08,16.74,6.97,24.74,25.33,70.34,92.65,120.65,171.74,120.63,79.09.01,146.41-50.29,171.74-120.63Zm0-123.71c-25.33-70.34-92.65-120.65-171.74-120.63-79.09-.01-146.41,50.29-171.74,120.63-2.89,7.99-5.22,16.26-6.97,24.74h25.77c.11-.46.22-.92.34-1.37t.01-.03c.24-.99.51-1.98.77-2.97.19-.71.4-1.43.6-2.14.22-.79.45-1.59.7-2.37.18-.62.37-1.23.57-1.85.25-.82.54-1.66.81-2.48,1.31-3.9,2.78-7.75,4.39-11.51,3.2-7.49,6.97-14.69,11.26-21.51,2.03-3.27,4.19-6.45,6.48-9.53,2.11-2.9,4.32-5.73,6.64-8.47,5.77-6.85,12.11-13.2,18.97-18.97,17.11-14.45,37.35-25.3,59.55-31.4,13.33-3.67,27.35-5.63,41.85-5.63,64.96,0,120.7,39.34,144.73,95.5h-20.78c-22.7-45.44-69.68-76.66-123.95-76.66-8.95,0-17.69.85-26.15,2.48-36.03,6.87-67.09,27.71-87.35,56.63-2.21,3.16-4.3,6.41-6.26,9.75-1.47,2.55-2.88,5.15-4.2,7.78-3.94,7.85-7.14,16.13-9.52,24.74-1.32,4.75-2.4,9.61-3.19,14.56-.56,3.35-.98,6.76-1.29,10.19h-44.11c-.3,4.08-.44,8.22-.43,12.37-.01,4.17.13,8.29.42,12.38h71.49c-.35-3.12-.56-6.3-.64-9.5-.03-.96-.04-1.91-.04-2.88,0-4.18.23-8.32.68-12.38.95-8.58,2.88-16.87,5.66-24.73,1.51-4.28,3.27-8.43,5.27-12.44,0-.02.02-.04.03-.05.2-.42.42-.84.63-1.24.34-.65.68-1.3,1.03-1.94.42-.79.85-1.57,1.31-2.34.35-.64.71-1.26,1.09-1.88.13-.22.26-.44.4-.66.38-.65.79-1.3,1.21-1.94.02-.07.07-.11.1-.16.44-.7.9-1.41,1.36-2.09,19.72-29.44,53.13-48.95,91.12-49.41.45-.01.91-.01,1.37-.01,38.57,0,72.53,19.63,92.5,49.42,5.12,7.63,9.31,15.91,12.42,24.74h28.55s45.23-.01,45.23-.01c-1.75-8.48-4.08-16.74-6.97-24.74Z"/>
    <path class="cls-1" d="m340.78,310.89c2.28-3.09,4.43-6.28,6.43-9.58,2.08-3.38,4.01-6.85,5.79-10.41,3.94-7.85,7.14-16.13,9.52-24.74,1-3.6,1.86-7.25,2.56-10.96.87-4.52,1.51-9.11,1.91-13.79h18.91c.33-4.09.48-8.2.49-12.37-.01-4.17-.15-8.29-.48-12.38h-18.92s-27.37,0-27.37,0c.45,4.06.68,8.2.68,12.38,0,.46-.01.91-.02,1.36,0,.81-.02,1.63-.05,2.43,0,.4-.01.76-.04,1.12-.02.62-.04,1.21-.09,1.8-.11,1.91-.26,3.8-.47,5.66-.95,8.58-2.88,16.87-5.66,24.73-.7,2-1.46,3.97-2.29,5.89-.23.56-.45,1.11-.7,1.65-.24.57-.48,1.14-.75,1.69-.35.77-.71,1.53-1.09,2.28-.3.63-.6,1.24-.92,1.87-.31.62-.63,1.22-.97,1.83-.27.54-.57,1.08-.88,1.61-.25.52-.55,1.01-.84,1.5-.26.48-.55.97-.85,1.44-.13.24-.27.49-.44.73-.37.64-.76,1.26-1.15,1.88,0,.02-.02.04-.03.05-.49.8-1,1.55-1.52,2.33-.11.15-.2.31-.32.45-20,29.54-53.81,48.97-92.18,48.97-.97,0-1.92-.01-2.87-.03-37.38-.95-70.16-20.33-89.63-49.39-5.12-7.63-9.31-15.91-12.42-24.74h-28.55s-19.46.01-19.46.01c2.05,8.53,4.82,16.8,8.2,24.74h20.78c22.7,45.44,69.68,76.66,123.95,76.66,7.67,0,15.23-.63,22.57-1.84,36.5-5.98,68.2-26.22,89.16-54.83Zm33.01-143.7h-20.78c-22.7-45.44-69.68-76.66-123.95-76.66-8.95,0-17.69.85-26.15,2.48-36.03,6.87-67.09,27.71-87.35,56.63-2.21,3.16-4.3,6.41-6.26,9.75-1.47,2.55-2.88,5.15-4.2,7.78-3.94,7.85-7.14,16.13-9.52,24.74-1.32,4.75-2.4,9.61-3.19,14.56-.56,3.35-.98,6.76-1.29,10.19h-18.93c-.32,4.1-.46,8.2-.47,12.37.01,4.17.16,8.3.51,12.38h46.27c-.35-3.12-.56-6.3-.64-9.5-.03-.96-.04-1.91-.04-2.88,0-4.18.23-8.32.68-12.38.95-8.58,2.88-16.87,5.66-24.73,1.51-4.28,3.27-8.43,5.27-12.44,0-.02.02-.04.03-.05.2-.42.42-.84.63-1.24.34-.65.68-1.3,1.03-1.94.42-.79.85-1.57,1.31-2.34.35-.64.71-1.26,1.09-1.88.13-.22.26-.44.4-.66.38-.65.79-1.3,1.21-1.94.02-.07.07-.11.1-.16.44-.7.9-1.41,1.36-2.09,19.72-29.44,53.13-48.95,91.12-49.41.45-.01.91-.01,1.37-.01,38.57,0,72.53,19.63,92.5,49.42,5.12,7.63,9.31,15.91,12.42,24.74h28.55s19.46-.01,19.46-.01c-2.05-8.53-4.82-16.8-8.2-24.74Z"/>
    <path class="cls-1" d="m340.78,310.89c2.28-3.09,4.43-6.28,6.43-9.58,2.08-3.38,4.01-6.85,5.79-10.41,3.94-7.85,7.14-16.13,9.52-24.74,1-3.6,1.86-7.25,2.56-10.96.87-4.52,1.51-9.11,1.91-13.79.37-4.07.55-8.2.56-12.37,0-4.18-.19-8.3-.56-12.37h-27.37c.45,4.05.68,8.19.68,12.37,0,.46-.01.91-.02,1.36,0,.81-.02,1.63-.05,2.43,0,.4-.01.76-.04,1.12-.02.62-.04,1.21-.09,1.8-.11,1.91-.26,3.8-.47,5.66-.95,8.58-2.88,16.87-5.66,24.73-.7,2-1.46,3.97-2.29,5.89-.23.56-.45,1.11-.7,1.65-.24.57-.48,1.14-.75,1.69-.35.77-.71,1.53-1.09,2.28-.3.63-.6,1.24-.92,1.87-.31.62-.63,1.22-.97,1.83-.27.54-.57,1.08-.88,1.61-.25.52-.55,1.01-.84,1.5-.26.48-.55.97-.85,1.44-.13.24-.27.49-.44.73-.37.64-.76,1.26-1.15,1.88,0,.02-.02.04-.03.05-.49.8-1,1.55-1.52,2.33-.11.15-.2.31-.32.45-20,29.54-53.81,48.97-92.18,48.97-.97,0-1.92-.01-2.87-.03-37.38-.95-70.16-20.33-89.63-49.39-5.12-7.63-9.31-15.91-12.42-24.74h-28.55c2.39,8.62,5.59,16.9,9.52,24.75,22.7,45.44,69.68,76.66,123.95,76.66,7.67,0,15.23-.63,22.57-1.84,36.5-5.98,68.2-26.22,89.16-54.83Zm12.23-143.7c-22.7-45.44-69.68-76.66-123.95-76.66-8.95,0-17.69.85-26.15,2.48-36.03,6.87-67.09,27.71-87.35,56.63-2.21,3.16-4.3,6.41-6.26,9.75-1.47,2.55-2.88,5.15-4.2,7.78-3.94,7.85-7.14,16.13-9.52,24.74-1.32,4.75-2.4,9.61-3.19,14.56-.56,3.35-.98,6.76-1.29,10.19-.37,4.07-.56,8.19-.56,12.37.01,4.17.19,8.3.56,12.37h27.37c-.35-3.11-.56-6.29-.64-9.49-.03-.96-.04-1.91-.04-2.88,0-4.18.23-8.32.68-12.38.95-8.58,2.88-16.87,5.66-24.73,1.51-4.28,3.27-8.43,5.27-12.44,0-.02.02-.04.03-.05.2-.42.42-.84.63-1.24.34-.65.68-1.3,1.03-1.94.42-.79.85-1.57,1.31-2.34.35-.64.71-1.26,1.09-1.88.13-.22.26-.44.4-.66.38-.65.79-1.3,1.21-1.94.02-.07.07-.11.1-.16.44-.7.9-1.41,1.36-2.09,19.72-29.44,53.13-48.95,91.12-49.41.45-.01.91-.01,1.37-.01,38.57,0,72.53,19.63,92.5,49.42,5.12,7.63,9.31,15.91,12.42,24.74h28.55c-2.39-8.62-5.59-16.9-9.52-24.75Z"/>
    <path class="cls-1" d="m117.78,229.04c0,4.18.23,8.32.68,12.38H.33c-.22-4.09-.33-8.23-.33-12.38s.11-8.29.33-12.38h118.14c-.45,4.06-.68,8.19-.68,12.38Z"/>
    <path class="cls-1" d="m458.1,229.04c0,4.15-.11,8.29-.33,12.38h-118.14c.45-4.06.68-8.19.68-12.38s-.23-8.32-.68-12.38h118.14c.22,4.09.33,8.23.33,12.38Z"/>
    <path class="cls-1" d="m28.11,266.16c1.55,8.44,3.62,16.7,6.19,24.74H8.46c-2.27-8.07-4.09-16.33-5.46-24.74h25.11Z"/>
    <path class="cls-1" d="m136.55,290.9H57.31c-2.89-7.99-5.22-16.26-6.97-24.74h73.78c3.11,8.82,7.31,17.1,12.42,24.74Z"/>
    <path class="cls-1" d="m353,290.9h-16.22s-15.24-.01-15.24-.01c.52-.76,1.02-1.55,1.52-2.33.01-.01.03-.03.03-.05.4-.62.78-1.24,1.15-1.88.16-.23.31-.48.44-.73.3-.47.58-.96.85-1.44.29-.48.58-.98.84-1.5.32-.52.62-1.06.88-1.61.34-.6.66-1.21.97-1.83.32-.6.64-1.23.92-1.87.37-.75.74-1.51,1.09-2.28.25-.56.51-1.12.75-1.69.25-.54.49-1.09.7-1.65.82-1.92,1.58-3.89,2.29-5.89h28.55c-2.39,8.62-5.59,16.9-9.52,24.75Z"/>
    <path class="cls-1" d="m449.65,290.9h-75.86c.35-.84.69-1.66,1.03-2.51.33-.77.65-1.57.95-2.37.03-.05.07-.13.09-.22.21-.52.41-1.04.6-1.57.75-1.98,1.44-3.97,2.1-5.99.25-.74.48-1.47.7-2.22.31-.92.58-1.86.85-2.8.24-.77.45-1.55.66-2.33.21-.71.4-1.43.58-2.17.22-.84.44-1.69.64-2.55h73.11c-1.37,8.41-3.19,16.67-5.45,24.74Z"/>
    <path class="cls-1" d="m76.11,191.92H3c1.37-8.41,3.19-16.67,5.45-24.74h25.85s.01,0,.01,0h50c-1.61,3.76-3.08,7.61-4.39,11.51-.27.82-.55,1.65-.81,2.48-.2.62-.4,1.23-.57,1.85-.25.78-.48,1.58-.7,2.37-.21.71-.42,1.43-.6,2.14-.27.98-.53,1.98-.77,2.97t-.01.03c-.12.45-.23.91-.34,1.37Z"/>
    <path class="cls-1" d="m124.13,191.93h-28.55c2.39-8.62,5.59-16.9,9.52-24.75h28s3.45.01,3.45.01c-.46.68-.92,1.39-1.36,2.09-.03.05-.08.1-.1.16-.42.64-.82,1.29-1.21,1.94-.13.22-.26.44-.4.66-.37.62-.74,1.24-1.09,1.88-.46.77-.89,1.55-1.31,2.34-.35.64-.69,1.29-1.03,1.94-.21.41-.43.82-.63,1.24-.01.01-.03.03-.03.05-2,4-3.76,8.16-5.27,12.44Z"/>
    <path class="cls-1" d="m407.75,191.93h-73.78c-3.11-8.82-7.31-17.1-12.42-24.74h79.24c2.89,7.99,5.22,16.26,6.97,24.74Z"/>
    <path class="cls-1" d="m362.65,42.96l-17.76,17.76c-7.07-4.87-14.37-9.25-21.87-13.12l18.27-18.27c7.31,4.1,14.44,8.65,21.35,13.63Z"/>
  </g>
  <g>
    <path class="cls-1" d="m278.81,240.54c.86-3.7,1.31-7.54,1.31-11.51s-.45-7.81-1.31-11.51c-2.01-8.74-6.25-16.62-12.13-23-9.33-10.18-22.73-16.56-37.63-16.56s-28.3,6.38-37.64,16.56h-19.39c11.68-19.28,32.85-32.16,57.03-32.16s45.36,12.87,57.03,32.16c4.21,6.93,7.2,14.71,8.63,23h20.93c-1.04-8.07-3.2-15.78-6.31-23-13.39-31.08-44.3-52.85-80.29-52.85s-66.91,21.77-80.28,52.85c-3.11,7.21-5.27,14.93-6.31,23h36.85c-.86,3.7-1.31,7.54-1.31,11.51s.45,7.81,1.31,11.51c2.01,8.74,6.25,16.62,12.11,23,9.34,10.18,22.75,16.56,37.64,16.56s28.3-6.38,37.63-16.56h19.4c-11.68,19.28-32.85,32.16-57.03,32.16s-45.36-12.87-57.03-32.16c-4.21-6.93-7.2-14.71-8.63-23h-20.94c1.04,8.07,3.2,15.78,6.31,23,13.37,31.08,44.28,52.85,80.28,52.85s66.91-21.77,80.29-52.85c3.11-7.21,5.27-14.93,6.31-23h-36.84Zm-82.27,0c-1.29-3.61-1.99-7.48-1.99-11.51s.7-7.9,1.99-11.51c4.73-13.4,17.51-23,32.51-23s27.79,9.59,32.51,23c1.29,3.61,1.99,7.48,1.99,11.51s-.7,7.9-1.99,11.51c-4.73,13.4-17.51,23-32.51,23s-27.79-9.59-32.51-23Z"/>
    <path class="cls-1" d="m278.81,240.54c.86-3.7,1.31-7.54,1.31-11.51s-.45-7.81-1.31-11.51c-2.01-8.74-6.25-16.62-12.13-23-9.33-10.18-22.73-16.56-37.63-16.56s-28.3,6.38-37.64,16.56h-19.39c-4.21,6.93-7.2,14.71-8.63,23h15.91c-.86,3.7-1.31,7.54-1.31,11.51s.45,7.81,1.31,11.51c2.01,8.74,6.25,16.62,12.11,23,9.34,10.18,22.75,16.56,37.64,16.56s28.3-6.38,37.63-16.56h19.4c4.21-6.93,7.2-14.71,8.63-23h-15.91Zm-82.27,0c-1.29-3.61-1.99-7.48-1.99-11.51s.7-7.9,1.99-11.51c4.73-13.4,17.51-23,32.51-23s27.79,9.59,32.51,23c1.29,3.61,1.99,7.48,1.99,11.51s-.7,7.9-1.99,11.51c-4.73,13.4-17.51,23-32.51,23s-27.79-9.59-32.51-23Z"/>
    <path class="cls-1" d="m278.81,217.53c-2.01-8.74-6.25-16.62-12.13-23-9.33-10.18-22.73-16.56-37.63-16.56s-28.3,6.38-37.64,16.56c-5.86,6.38-10.11,14.26-12.11,23-.86,3.7-1.31,7.54-1.31,11.51s.45,7.81,1.31,11.51c2.01,8.74,6.25,16.62,12.11,23,9.34,10.18,22.75,16.56,37.64,16.56s28.3-6.38,37.63-16.56c5.88-6.38,10.12-14.26,12.13-23,.86-3.7,1.31-7.54,1.31-11.51s-.45-7.81-1.31-11.51Zm-49.76,46.01c-15,0-27.79-9.59-32.51-23-1.29-3.61-1.99-7.48-1.99-11.51s.7-7.9,1.99-11.51c4.73-13.4,17.51-23,32.51-23s27.79,9.59,32.51,23c1.29,3.61,1.99,7.48,1.99,11.51s-.7,7.9-1.99,11.51c-4.73,13.4-17.51,23-32.51,23Z"/>
    <path class="cls-1" d="m229.05,194.54c-15,0-27.79,9.59-32.51,23h-54.09c1.04-8.07,3.2-15.78,6.31-23h80.29Z"/>
    <path class="cls-1" d="m278.81,217.53h-17.24c-4.73-13.4-17.51-23-32.51-23h37.63c5.88,6.38,10.12,14.26,12.13,23Z"/>
    <path class="cls-1" d="m315.64,217.53h-20.93c-1.43-8.3-4.41-16.06-8.63-23h23.24c3.11,7.21,5.28,14.93,6.32,23Z"/>
    <path class="cls-1" d="m163.39,240.54c1.43,8.3,4.41,16.06,8.63,23h-23.26c-3.11-7.21-5.28-14.93-6.32-23h20.94Z"/>
    <path class="cls-1" d="m229.05,263.54h-37.64c-5.86-6.38-10.11-14.26-12.11-23h17.24c4.73,13.4,17.51,23,32.51,23Z"/>
    <path class="cls-1" d="m315.64,240.54c-1.04,8.07-3.2,15.78-6.31,23h-80.28c15,0,27.79-9.59,32.51-23h54.08Z"/>
  </g>
</svg>